<?xml version="1.0" standalone="no"?><!DOCTYPE svg PUBLIC "-//W3C//DTD SVG 1.1//EN" "http://www.w3.org/Graphics/SVG/1.1/DTD/svg11.dtd"><svg t="1555826144148" class="icon" style="" viewBox="0 0 1025 1024" version="1.1" xmlns="http://www.w3.org/2000/svg" p-id="4990" xmlns:xlink="http://www.w3.org/1999/xlink" width="300.29296875" height="300"><defs><style type="text/css"></style></defs><path d="M895.893316 767.087723l-767.479649 0c-70.644967 0-128.413672-56.878428-128.413672-127.521349l0 63.956637c0 70.643943 57.767682 128.033002 128.413672 128.033002l767.479649 0c70.644967 0 127.412878-57.390082 127.412878-128.033002l0-63.956637C1023.306194 710.210317 966.538283 767.087723 895.893316 767.087723z" p-id="4991"></path><path d="M895.893316 863.278505l-767.479649 0c-70.644967 0-128.413672-57.134255-128.413672-127.777175l0 63.956637c0 70.643943 57.767682 128.288828 128.413672 128.288828l767.479649 0c70.644967 0 127.412878-57.645908 127.412878-128.288828l0-63.956637C1023.306194 806.145274 966.538283 863.278505 895.893316 863.278505z" p-id="4992"></path><path d="M895.893316 95.934956l-767.479649 0c-70.644967 0-127.913275 57.268308-127.913275 127.913275l0 383.739824c0 70.643943 57.268308 127.913275 127.913275 127.913275l767.479649 0c70.644967 0 127.913275-57.269331 127.913275-127.913275l0-383.739824C1023.806591 153.202241 966.538283 95.934956 895.893316 95.934956zM499.696786 387.311163c26.909883 3.464915 97.909937 12.678764 97.909937 86.833671 0.019443 39.963177-20.681018 60.72299-37.642319 71.111594-12.790304 7.834432-29.335119 12.764722-47.494711 14.745842 0.935302 2.410909-0.316202 4.988618-0.316202 7.733125l0 21.493523c0 11.880585-4.108574 21.493523-15.989159 21.493523-11.880585 0-15.989159-9.612938-15.989159-21.493523l0-21.493523c0-3.046383-2.949168-5.921873-1.807159-8.546653-43.560098-7.317663-85.854367-38.360679-85.854367-98.015338 0-11.880585 9.639544-21.493523 21.520129-21.493523 11.880585 0 21.549805 9.612938 21.549805 21.493523 0 52.745295 45.89119 56.838519 59.931974 56.838519 18.176988 0 33.327036-3.252067 43.402509-9.423627 7.137561-4.366448 17.077957-12.698207 17.077957-34.443463 0-24.116257-8.518001-37.570687-59.983139-44.183292-82.21549-10.578939-92.175329-54.697763-91.880617-80.031754 0.436952-37.947264 12.085246-78.081333 76.041884-87.891769l0-16.697287c0-11.880585 4.108574-21.493523 15.989159-21.493523 11.880585 0 15.989159 9.612938 15.989159 21.493523l0 15.743566c31.978319 2.916423 43.519166 11.429307 57.769728 25.982768 26.320459 26.866904 28.237111 62.422701 28.1532 66.39006-0.251733 11.857049-10.705829 20.820188-21.934568 21.052478-11.818163-0.251733-21.220301-9.991562-21.052478-21.788236 0-0.817622-0.294712-21.829168-14.251585-35.82902-9.382695-9.423627-23.655769-14.18814-42.398646-14.18814-36.100196 0-54.592362 16.055674-54.949496 47.729048C443.256332 370.080733 462.169077 382.485251 499.696786 387.311163z" p-id="4993"></path></svg>