<?xml version="1.0" standalone="no"?><!DOCTYPE svg PUBLIC "-//W3C//DTD SVG 1.1//EN" "http://www.w3.org/Graphics/SVG/1.1/DTD/svg11.dtd"><svg t="1555826012383" class="icon" style="" viewBox="0 0 1024 1024" version="1.1" xmlns="http://www.w3.org/2000/svg" p-id="4749" xmlns:xlink="http://www.w3.org/1999/xlink" width="300" height="300"><defs><style type="text/css"></style></defs><path d="M896.000427 1024H128.000427a128 128 0 0 1-128-128V341.333333a38.826667 38.826667 0 0 1 5.973333-20.906666l145.92-256A128 128 0 0 1 262.827093 0h498.346667a128 128 0 0 1 110.933333 64.426667l145.92 256A38.826667 38.826667 0 0 1 1024.000427 341.333333v554.666667a128 128 0 0 1-128 128zM85.33376 384v512a42.666667 42.666667 0 0 0 42.666667 42.666667h768a42.666667 42.666667 0 0 0 42.666666-42.666667V384z m30.72-85.333333h791.893333l-109.653333-192a42.666667 42.666667 0 0 0-37.12-21.333334H262.827093a42.666667 42.666667 0 0 0-37.12 21.333334zM725.33376 618.666667H298.667093a42.666667 42.666667 0 0 1 0-85.333334h426.666667a42.666667 42.666667 0 0 1 0 85.333334z" p-id="4750"></path></svg>